<svg xmlns="http://www.w3.org/2000/svg" width="1200" height="750" viewBox="0 0 1200 750">
  <defs>
    <linearGradient id="bg" x1="0" y1="0" x2="1" y2="1">
      <stop offset="0" stop-color="#0b1020"/>
      <stop offset="1" stop-color="#111a36"/>
    </linearGradient>
    <linearGradient id="accent" x1="0" y1="0" x2="1" y2="0">
      <stop offset="0" stop-color="#7c5cff"/>
      <stop offset="1" stop-color="#2dd4bf"/>
    </linearGradient>
  </defs>
  <rect width="1200" height="750" fill="url(#bg)"/>
  <circle cx="980" cy="170" r="210" fill="#2dd4bf" opacity="0.11"/>
  <circle cx="250" cy="610" r="260" fill="#7c5cff" opacity="0.10"/>

  <rect x="80" y="90" width="1040" height="570" rx="26" fill="rgba(255,255,255,0.06)" stroke="rgba(255,255,255,0.16)"/>
  <text x="120" y="160" font-family="Inter, system-ui, -apple-system, Segoe UI, Roboto, Arial" font-size="34" font-weight="900" fill="rgba(255,255,255,0.92)">
    3DWizard
  </text>
  <text x="120" y="195" font-family="ui-monospace, SFMono-Regular, Menlo, Monaco, Consolas, Liberation Mono" font-size="18" fill="rgba(255,255,255,0.70)">
    Vite + React + TypeScript · client-side 3D printing/model toolkit
  </text>

  <rect x="120" y="240" width="960" height="370" rx="22" fill="rgba(0,0,0,0.20)" stroke="rgba(255,255,255,0.10)"/>

  <!-- stylized "3D model" cube -->
  <g transform="translate(280,330)" stroke="rgba(255,255,255,0.70)" stroke-width="4" fill="none">
    <path d="M0 70 L120 0 L240 70 L120 140 Z" />
    <path d="M0 70 L0 190 L120 260 L120 140" />
    <path d="M240 70 L240 190 L120 260" />
  </g>

  <!-- tool list pills -->
  <g font-family="Inter, system-ui" font-size="18" font-weight="800">
    <rect x="560" y="310" width="470" height="54" rx="18" fill="rgba(255,255,255,0.06)" stroke="rgba(255,255,255,0.12)"/>
    <text x="590" y="345" fill="rgba(255,255,255,0.88)">Viewer / Inspector</text>

    <rect x="560" y="380" width="470" height="54" rx="18" fill="rgba(255,255,255,0.06)" stroke="rgba(255,255,255,0.12)"/>
    <text x="590" y="415" fill="rgba(255,255,255,0.88)">Sanity Check / Repair</text>

    <rect x="560" y="450" width="470" height="54" rx="18" fill="rgba(255,255,255,0.06)" stroke="rgba(255,255,255,0.12)"/>
    <text x="590" y="485" fill="rgba(255,255,255,0.88)">Conversions / Packaging</text>
  </g>

  <rect x="120" y="630" width="960" height="50" rx="16" fill="rgba(255,255,255,0.05)" stroke="rgba(255,255,255,0.10)"/>
  <text x="160" y="662" font-family="Inter, system-ui" font-size="18" font-weight="700" fill="rgba(255,255,255,0.86)">
    Replace this placeholder with a real screenshot later.
  </text>
</svg>

