<svg xmlns="http://www.w3.org/2000/svg" width="1200" height="750" viewBox="0 0 1200 750">
  <defs>
    <linearGradient id="bg" x1="0" y1="0" x2="1" y2="1">
      <stop offset="0" stop-color="#0b1020"/>
      <stop offset="1" stop-color="#111a36"/>
    </linearGradient>
    <linearGradient id="accent" x1="0" y1="0" x2="1" y2="0">
      <stop offset="0" stop-color="#7c5cff"/>
      <stop offset="1" stop-color="#2dd4bf"/>
    </linearGradient>
  </defs>
  <rect width="1200" height="750" fill="url(#bg)"/>
  <circle cx="980" cy="150" r="170" fill="#7c5cff" opacity="0.14"/>
  <circle cx="230" cy="620" r="240" fill="#2dd4bf" opacity="0.10"/>
  <rect x="80" y="90" width="1040" height="570" rx="26" fill="rgba(255,255,255,0.06)" stroke="rgba(255,255,255,0.16)"/>
  <rect x="120" y="140" width="960" height="80" rx="18" fill="rgba(0,0,0,0.22)" stroke="rgba(255,255,255,0.10)"/>
  <text x="160" y="195" font-family="Inter, system-ui, -apple-system, Segoe UI, Roboto, Arial" font-size="34" font-weight="800" fill="rgba(255,255,255,0.92)">
    SantaSurvival
  </text>
  <text x="160" y="230" font-family="ui-monospace, SFMono-Regular, Menlo, Monaco, Consolas, Liberation Mono" font-size="18" fill="rgba(255,255,255,0.68)">
    Phaser side-scroller · score + survival loop · optional Firebase leaderboard
  </text>

  <rect x="120" y="250" width="960" height="340" rx="22" fill="rgba(0,0,0,0.20)" stroke="rgba(255,255,255,0.10)"/>

  <!-- simple horizon -->
  <rect x="120" y="520" width="960" height="70" fill="rgba(255,255,255,0.05)"/>
  <path d="M120 520 C 320 470, 520 560, 720 510 C 860 475, 980 545, 1080 510 L1080 590 L120 590 Z" fill="rgba(45,212,191,0.10)"/>

  <!-- "Santa" marker -->
  <circle cx="210" cy="410" r="24" fill="url(#accent)"/>
  <text x="250" y="417" font-family="Inter, system-ui" font-size="18" font-weight="700" fill="rgba(255,255,255,0.9)">Santa</text>

  <!-- "Missile" markers -->
  <path d="M820 360 L900 400 L820 440 Z" fill="rgba(255,255,255,0.78)"/>
  <text x="910" y="407" font-family="Inter, system-ui" font-size="18" font-weight="700" fill="rgba(255,255,255,0.9)">Missiles</text>

  <!-- CTA footer -->
  <rect x="120" y="610" width="960" height="50" rx="16" fill="rgba(255,255,255,0.05)" stroke="rgba(255,255,255,0.10)"/>
  <text x="160" y="642" font-family="Inter, system-ui" font-size="18" font-weight="700" fill="rgba(255,255,255,0.86)">
    Replace this placeholder with a real screenshot or GIF later.
  </text>
</svg>


